<?xml version="1.0" encoding="utf-8"?>
<!-- Generator: Adobe Illustrator 24.2.3, SVG Export Plug-In . SVG Version: 6.00 Build 0)  -->
<svg version="1.1" id="Layer_1" xmlns="http://www.w3.org/2000/svg" xmlns:xlink="http://www.w3.org/1999/xlink" x="0px" y="0px"
	 width="70" height="70" viewBox="0 0 70 70" style="enable-background:new 0 0 70 70;" xml:space="preserve">
<style type="text/css">
	.st0{fill:none;stroke:#161616;stroke-width:2;stroke-miterlimit:10;}
	.st1{enable-background:new    ;}
</style>
<g>
	<path class="st0" d="M45.7,69.1h-0.5C32.4,69.1,22,58.6,22,45.6s10.4-23.5,23.2-23.5h0.5c12.8,0,23.2,10.5,23.2,23.5
		C69,58.5,58.6,69.1,45.7,69.1z"/>
	<path class="st0" d="M8,24.1h20"/>
	<path class="st0" d="M8,15.1h20"/>
	<path class="st0" d="M8,6.1h20"/>
	<path class="st0" d="M8,33.1h17"/>
	<path class="st0" d="M8,42.1h14"/>
	<path class="st0" d="M8,51.1h14"/>
	<path class="st0" d="M8,60.1h19"/>
	<path class="st0" d="M35,24.6V6.1h-8v-5H9v5H1v63h34v-3"/>
	<g class="st1">
		<path d="M38.8,48.9v2h-7.3l4.2-6.4c0.9-1.4,1.1-1.8,1.1-2.4c0-0.8-0.6-1.3-1.4-1.3c-0.6,0-1.2,0.3-1.4,0.8
			c-0.1,0.3-0.2,0.5-0.2,1.2h-2.1c0-2.5,1.4-4.1,3.8-4.1c2.1,0,3.6,1.3,3.6,3.2c0,1.1-0.4,2.1-1.5,3.7l-2.3,3.3H38.8z"/>
		<path d="M46.8,48.9v2h-7.3l4.2-6.4c0.9-1.4,1.1-1.8,1.1-2.4c0-0.8-0.6-1.3-1.4-1.3c-0.6,0-1.2,0.3-1.4,0.8
			c-0.1,0.3-0.2,0.5-0.2,1.2h-2.1c0-2.5,1.4-4.1,3.8-4.1c2.1,0,3.6,1.3,3.6,3.2c0,1.1-0.4,2.1-1.5,3.7l-2.3,3.3H46.8z"/>
		<path d="M54.9,43.5c0.7-0.8,1.4-1.2,2.3-1.2c0.7,0,1.5,0.3,2,0.8c0.5,0.5,0.7,1.2,0.7,2.4V51h-2.3v-5.2c0-0.9-0.5-1.5-1.2-1.5
			c-0.4,0-0.8,0.1-1,0.4C55,45,54.9,45.3,54.9,46v5h-2.3V39h2.3V43.5z"/>
	</g>
</g>
</svg>
