<svg width="70" height="70" viewBox="0 0 70 70" fill="none" xmlns="http://www.w3.org/2000/svg">
<path d="M35 14C24.5 14 16 22.4 16 32.8V35.7V44.2C16 46.5 17.7 48.4 19.9 48.8V49C19.9 50.7 21.3 52 23 52H23.9C25.6 52 27 50.6 27 49V35.6C27 33.9 25.6 32.6 23.9 32.6H23C21.3 32.6 19.9 34 19.9 35.6V35.7H18V32.8C18 23.5 25.6 16 35 16C44.4 16 52 23.5 52 32.8V35.7H50.1C50 34 48.5 32.6 46.7 32.6H46.4C44.5 32.6 43 34.1 43 36V48.7C43 50.6 44.5 52.1 46.4 52.1H46.7C48.5 52.1 50 50.7 50.1 48.9C52.3 48.5 54 46.6 54 44.3V35.8V32.9C54 22.4 45.5 14 35 14ZM21.9 35.6C21.9 35 22.4 34.6 23 34.6H23.9C24.5 34.6 25 35.1 25 35.6V49C25 49.6 24.5 50 23.9 50H23C22.4 50 21.9 49.5 21.9 49V35.6ZM19.9 37.7V46.8C18.8 46.5 18 45.4 18 44.2V37.7H19.9ZM48.1 48.7C48.1 49.5 47.5 50.1 46.7 50.1H46.4C45.6 50.1 45 49.5 45 48.7V36C45 35.2 45.6 34.6 46.4 34.6H46.7C47.5 34.6 48.1 35.2 48.1 36V48.7ZM52 44.2C52 45.4 51.2 46.4 50.1 46.8V37.7H52V44.2Z" fill="#161616"/>
<path d="M35 7C50.4 7 63 19.6 63 35C63 50.4 50.4 63 35 63C19.6 63 7 50.4 7 35C7 19.5 19.6 7 35 7ZM35 5C18.4 5 5 18.4 5 35C5 51.6 18.4 65 35 65C51.6 65 65 51.6 65 35C65 18.4 51.6 5 35 5Z" fill="#161616"/>
<path d="M3.9 51C1.3 46 0 40.6 0 35C0 16.2 14.7 0.8 33.5 0L33.6 2C15.9 2.8 2 17.2 2 35C2 40.3 3.2 45.4 5.6 50.1L3.9 51Z" fill="#161616"/>
<path d="M34.9999 70.0001C22.8999 70.0001 11.7999 63.9001 5.3999 53.7001L7.0999 52.6001C13.1999 62.2001 23.5999 68.0001 34.9999 68.0001C46.3999 68.0001 56.7999 62.2001 62.8999 52.6001L64.5999 53.7001C58.1999 63.9001 47.0999 70.0001 34.9999 70.0001Z" fill="#161616"/>
<path d="M66.1 51L64.3 50.1C66.8 45.4 68 40.3 68 35C68 17.2 54.1 2.8 36.5 2L36.6 0C55.3 0.8 70 16.2 70 35C70 40.6 68.7 46 66.1 51Z" fill="#161616"/>
</svg>
